<svg xmlns="http://www.w3.org/2000/svg" version="1.1" xmlns:xlink="http://www.w3.org/1999/xlink" xmlns:svgjs="http://svgjs.dev/svgjs" width="2000" height="393" viewBox="0 0 2000 393"><g transform="matrix(1,0,0,1,-1.2121179075601276,-0.7315660243099558)"><svg viewBox="0 0 396 78" data-background-color="#ff908b" preserveAspectRatio="xMidYMid meet" height="393" width="2000" xmlns="http://www.w3.org/2000/svg" xmlns:xlink="http://www.w3.org/1999/xlink"><defs></defs><g id="tight-bounds" transform="matrix(1,0,0,1,0.2399993456969014,0.1451963101683873)"><svg viewBox="0 0 395.52 77.70960737966324" height="77.70960737966324" width="395.52"><g><svg viewBox="0 0 492.89523957232996 96.8413621219428" height="77.70960737966324" width="395.52"><g transform="matrix(1,0,0,1,97.37523957232996,23.760288363761617)"><svg viewBox="0 0 395.52 49.32078539441956" height="49.32078539441956" width="395.52"><g><svg viewBox="0 0 395.52 49.32078539441956" height="49.32078539441956" width="395.52"><g><svg viewBox="0 0 395.52 49.32078539441956" height="49.32078539441956" width="395.52"><g transform="matrix(1,0,0,1,0,0)"><svg width="395.52" viewBox="1.600000023841858 -35.099998474121094 290.2799987792969 36.20108413696289" height="49.32078539441956" data-palette-color="#ffffff"><path d="M7.8-30.4Q6.5-30.4 6-29.95L6-29.95Q5.45-29.5 5.35-28.3L5.35-28.3 1.6-28.35Q1.6-31.35 3.45-32.95L3.45-32.95Q4.95-34.3 7.85-34.3L7.85-34.3 18.9-34.3Q21.95-34.3 24.2-32.88 26.45-31.45 27.65-28.98 28.85-26.5 28.85-23.45L28.85-23.45Q28.85-18 25.7-15.23 22.55-12.45 17.45-12.45L17.45-12.45Q15.7-12.45 13.7-12.95L13.7-12.95 13.7-16.6Q15.8-16.25 17.25-16.25L17.25-16.25Q24.75-16.25 24.75-23.4L24.75-23.4Q24.75-26.95 23-28.73 21.25-30.5 18.2-30.5L18.2-30.5 11.9-30.5 11.9 0.05 7.8 0.05 7.8-30.4ZM50.7 1.1Q45.75 1.05 41.82-1.23 37.9-3.5 35.67-7.43 33.45-11.35 33.45-16.3L33.45-16.3 33.45-17.75Q33.45-22.5 35.72-26.48 38-30.45 41.92-32.77 45.85-35.1 50.5-35.1L50.5-35.1Q55.2-35.1 59.1-32.77 63-30.45 65.3-26.48 67.6-22.5 67.6-17.75L67.6-17.75 67.6-16.3Q67.6-11.35 65.37-7.35 63.15-3.35 59.3-1.1 55.45 1.15 50.7 1.1L50.7 1.1ZM50.55-2.7Q54.2-2.7 57.15-4.48 60.1-6.25 61.8-9.35 63.5-12.45 63.5-16.3L63.5-16.3 63.5-17.75Q63.5-21.4 61.75-24.53 60-27.65 57.02-29.48 54.05-31.3 50.45-31.3L50.45-31.3Q46.9-31.3 43.95-29.48 41-27.65 39.27-24.53 37.55-21.4 37.55-17.75L37.55-17.75 37.55-16.3Q37.55-12.45 39.25-9.35 40.95-6.25 43.92-4.48 46.9-2.7 50.55-2.7L50.55-2.7ZM75.8 0.6Q74.4 0.6 73.17-0.15 71.95-0.9 71.25-2.15L71.25-2.15 74.2-4.15Q74.7-3.25 75.5-3.25L75.5-3.25Q76.05-3.25 76.4-3.63 76.75-4 76.75-4.5L76.75-4.5 76.75-34.3 79.45-34.3 85-28.05 100.35-8.1 100.15-8.85 100-34.25 104.2-34.25 104.2 0.05 102.3 0.05 80.25-27.5 80.8-26.2 80.9-4.5Q80.9-2.35 79.35-0.88 77.8 0.6 75.8 0.6L75.8 0.6ZM116.84-30.4Q115.54-30.4 115.04-29.95L115.04-29.95Q114.49-29.5 114.39-28.3L114.39-28.3 110.64-28.35Q110.64-31.35 112.49-32.95L112.49-32.95Q113.99-34.3 116.89-34.3L116.89-34.3 139.24-34.3 139.24-30.5 120.94-30.5 120.94-20.05 133.44-20.05 133.44-16.25 120.94-16.25 120.94-3.75 139.24-3.75 139.24 0.05 116.84 0.05 116.84-30.4ZM158.79-17.8L174.74-17.8 174.74-13.55Q174.74-9.5 172.69-6.25 170.64-3 167.27-1.18 163.89 0.65 160.09 0.65L160.09 0.65Q155.34 0.65 151.49-1.68 147.64-4 145.44-8.08 143.24-12.15 143.24-17.15L143.24-17.15Q143.24-22 145.54-26.05 147.84-30.1 151.79-32.45 155.74-34.8 160.49-34.8L160.49-34.8Q162.89-34.8 165.64-34.02 168.39-33.25 170.37-31.55 172.34-29.85 172.34-27.35L172.34-27.35Q172.34-25.15 170.89-23.63 169.44-22.1 167.39-22.1L167.39-22.1Q166.44-22.1 165.47-22.48 164.49-22.85 163.84-23.55L163.84-23.55 166.14-26.4Q166.79-25.85 167.34-25.85L167.34-25.85Q167.89-25.85 168.19-26.23 168.49-26.6 168.49-27.2L168.49-27.2Q168.49-29.05 165.87-30.03 163.24-31 160.54-31L160.54-31Q156.79-31 153.77-29.15 150.74-27.3 149.04-24.13 147.34-20.95 147.34-17.1L147.34-17.1Q147.34-13.05 149.02-9.85 150.69-6.65 153.59-4.9 156.49-3.15 160.09-3.15L160.09-3.15Q162.94-3.15 165.34-4.5 167.74-5.85 169.17-8.2 170.59-10.55 170.64-13.45L170.64-13.45 170.64-14 158.79-14 158.79-17.8ZM182.14 0.05L182.14-34.3 186.24-34.3 186.24-3.75 203.09-3.75 203.09 0.05 182.14 0.05ZM205.44-30.05Q204.89-30.8 204.39-30.8L204.39-30.8Q204.14-30.8 203.84-30.65L203.84-30.65Q203.54-30.4 203.39-30.15L203.39-30.15 200.24-31.8Q200.84-33.25 202.29-34.1L202.29-34.1Q203.49-34.85 204.79-34.85L204.79-34.85Q205.99-34.85 207.09-34.15 208.19-33.45 208.89-32.1L208.89-32.1 215.84-19.25 224.09-34.35 228.79-34.35 217.94-14.9 217.99 0.05 213.94 0.05 213.79-14.8 205.44-30.05ZM237.53-30.4Q236.23-30.4 235.73-29.95L235.73-29.95Q235.18-29.5 235.08-28.3L235.08-28.3 231.33-28.35Q231.33-31.35 233.18-32.95L233.18-32.95Q234.68-34.3 237.58-34.3L237.58-34.3 248.63-34.3Q251.68-34.3 253.93-32.88 256.18-31.45 257.38-28.98 258.58-26.5 258.58-23.45L258.58-23.45Q258.58-18 255.43-15.23 252.28-12.45 247.18-12.45L247.18-12.45Q245.43-12.45 243.43-12.95L243.43-12.95 243.43-16.6Q245.53-16.25 246.98-16.25L246.98-16.25Q254.48-16.25 254.48-23.4L254.48-23.4Q254.48-26.95 252.73-28.73 250.98-30.5 247.93-30.5L247.93-30.5 241.63-30.5 241.63 0.05 237.53 0.05 237.53-30.4ZM266.93-29.35Q266.93-30.1 266.5-30.68 266.08-31.25 265.23-31.25L265.23-31.25Q263.93-31.2 263.53-30.35L263.53-30.35 260.73-32.35Q261.23-33.4 262.4-34.2 263.58-35 265.43-35L265.43-35Q268.03-35 269.5-33.45 270.98-31.9 271.03-29.4L271.03-29.4 271.03-19.75 287.78-19.75 287.78-34.3 291.88-34.3 291.88 0.05 287.78 0.05 287.78-15.95 271.03-15.95 271.03 0.05 266.93 0.05 266.93-29.35Z" opacity="1" transform="matrix(1,0,0,1,0,0)" fill="#ffffff" class="undefined-text-0" data-fill-palette-color="primary" id="text-0"></path></svg></g></svg></g></svg></g></svg></g><g><svg viewBox="0 0 85.73178583955696 96.8413621219428" height="96.8413621219428" width="85.73178583955696"><g><svg xmlns="http://www.w3.org/2000/svg" xmlns:xlink="http://www.w3.org/1999/xlink" xml:space="preserve" version="1.1" style="shape-rendering:geometricPrecision;text-rendering:geometricPrecision;image-rendering:optimizeQuality;" viewBox="19 15.25 61 68.90470123291016" x="0" y="0" fill-rule="evenodd" clip-rule="evenodd" height="96.8413621219428" width="85.73178583955696" class="icon-icon-0" data-fill-palette-color="accent" id="icon-0"><g fill="#ffffff" data-fill-palette-color="accent"><path class="" d="M53 16c9 5 16 9 24 14 2 1 3 2 3 5 0 10 0 20 0 29 0 2-1 4-3 5-9 5-15 9-24 14-3 1-4 2-7 0-9-5-16-9-24-14-2-1-3-2-3-5 0-10 0-20 0-29 0-2 1-3 3-5 9-5 16-9 25-14 2-1 4-1 6 0z m-1 35l0 27c8-5 16-9 23-14l0-27-23 14z m-4 27l0-27-23-14 0 27c8 5 16 9 23 14z m-21-44l23 14 23-14c-8-5-16-9-23-14-8 5-16 9-23 14z" fill="#ffffff" fill-rule="nonzero" data-fill-palette-color="accent"></path></g></svg></g></svg></g></svg></g></svg><rect width="395.52" height="77.70960737966324" fill="none" stroke="none" visibility="hidden"></rect></g></svg></g></svg>